<?xml version="1.0" encoding="UTF-8" standalone="no"?>
<!-- Created with Inkscape (http://www.inkscape.org/) -->

<svg
   width="109.24844mm"
   height="117.54253mm"
   viewBox="0 0 109.24844 117.54253"
   version="1.1"
   id="svg5"
   inkscape:export-filename="imagem bitmap.png"
   inkscape:export-xdpi="96"
   inkscape:export-ydpi="96"
   xmlns:inkscape="http://www.inkscape.org/namespaces/inkscape"
   xmlns:sodipodi="http://sodipodi.sourceforge.net/DTD/sodipodi-0.dtd"
   xmlns="http://www.w3.org/2000/svg"
   xmlns:svg="http://www.w3.org/2000/svg">
  <sodipodi:namedview
     id="namedview7"
     pagecolor="#ffffff"
     bordercolor="#000000"
     borderopacity="0.25"
     inkscape:showpageshadow="2"
     inkscape:pageopacity="0.0"
     inkscape:pagecheckerboard="0"
     inkscape:deskcolor="#d1d1d1"
     inkscape:document-units="mm"
     showgrid="false"
     inkscape:zoom="0.79162225"
     inkscape:cx="492.65922"
     inkscape:cy="511.60765"
     inkscape:window-width="1920"
     inkscape:window-height="1080"
     inkscape:window-x="1680"
     inkscape:window-y="0"
     inkscape:window-maximized="0"
     inkscape:current-layer="layer1" />
  <defs
     id="defs2" />
  <g
     inkscape:label="Camada 1"
     inkscape:groupmode="layer"
     id="layer1"
     transform="translate(-48.31014,-102.81446)">
    <path
       style="color:#000000;fill:#000000;fill-rule:evenodd;-inkscape-stroke:none"
       d="m 94.216797,102.81445 c -25.929257,6.96251 -45.714225,32.1065 -45.886182,59.02847 -0.602581,21.52694 12.149015,42.53845 31.323743,52.23176 18.224411,9.80116 42.164852,8.16712 58.262072,-5.13442 16.42189,-12.77795 24.17341,-36.16618 16.90871,-55.92751 -6.9864,-20.6065 -29.82578,-34.80672 -51.40428,-30.38303 -20.236942,3.45641 -36.13729,23.82709 -33.440272,44.38405 1.730103,18.2301 19.169311,33.53471 37.584652,31.90377 15.9081,-0.80494 29.81628,-15.6572 28.57376,-31.7198 -0.50904,-14.20901 -14.74064,-26.68849 -28.99688,-23.56612 -11.444992,1.88529 -20.08097,15.5669 -14.380511,26.32711 3.254248,6.83717 13.104861,10.75768 19.311831,5.40872 4.90382,-3.01082 4.23999,-13.29843 -2.83368,-11.82054 -1.73564,1.966 -1.22559,2.71798 0.0919,0.24839 6.79571,-1.3288 7.22904,8.52055 2.56487,11.37291 -6.6016,5.6332 -17.023919,0.71337 -19.576659,-6.83932 -4.510783,-11.35844 5.542419,-24.23436 17.248419,-24.7951 14.23822,-1.44942 26.9879,11.85539 26.3665,25.85141 -0.0662,15.78087 -14.44841,29.40975 -30.10393,29.35663 -18.060612,0.61046 -34.475493,-14.85331 -35.69286,-32.75197 -2.122953,-20.52799 14.203304,-40.42153 34.46032,-43.30257 22.40363,-3.96496 45.55718,12.02866 51.04796,33.85703 6.3334,22.30087 -5.86122,47.31752 -26.25943,57.66337 -18.34798,9.8799 -42.006861,6.93361 -58.205061,-5.8352 C 54.337172,195.80246 45.645439,173.54226 49.414083,152.87667 53.22697,129.51624 71.441685,109.2783 94.289062,103.0703 Z"
       id="path1576" />
  </g>
</svg>
